<svg width="5312" height="587" viewBox="0 0 5312 587" fill="none" xmlns="http://www.w3.org/2000/svg">
<path d="M606.84 587V549.56H760.24C769.6 549.56 774.28 544.36 774.28 533.96V443.48H768.04C759.72 459.08 748.28 470.867 733.72 478.84C719.507 486.467 703.907 490.28 686.92 490.28C664.04 490.28 642.893 485.253 623.48 475.2C604.413 464.8 588.987 449.72 577.2 429.96C565.76 410.2 560.04 386.28 560.04 358.2V349.88C560.04 321.8 565.933 298.053 577.72 278.64C589.507 258.88 604.933 243.8 624 233.4C643.067 223 663.693 217.8 685.88 217.8C704.6 217.8 721.067 221.96 735.28 230.28C749.493 238.253 760.413 250.04 768.04 265.64H774.28V225.08H814.84V546.44C814.84 558.227 811.027 567.933 803.4 575.56C796.12 583.187 786.587 587 774.8 587H606.84ZM687.96 451.8C704.253 451.8 718.813 447.987 731.64 440.36C744.813 432.387 755.213 421.293 762.84 407.08C770.467 392.867 774.28 376.227 774.28 357.16V350.92C774.28 332.547 770.293 316.253 762.32 302.04C754.693 287.827 744.293 276.733 731.12 268.76C718.293 260.44 703.907 256.28 687.96 256.28C671.667 256.28 656.933 260.267 643.76 268.24C630.933 275.867 620.707 286.787 613.08 301C605.453 314.867 601.64 331.16 601.64 349.88V358.2C601.64 377.267 605.28 393.907 612.56 408.12C620.187 421.987 630.413 432.733 643.24 440.36C656.413 447.987 671.32 451.8 687.96 451.8ZM1011.56 490.28C986.945 490.28 965.105 484.733 946.038 473.64C927.318 462.2 912.585 446.6 901.838 426.84C891.092 406.733 885.718 383.507 885.718 357.16V344.68C885.718 320.413 891.265 298.747 902.358 279.68C913.452 260.613 928.532 245.533 947.598 234.44C967.012 223.347 988.678 217.8 1012.6 217.8C1033.75 217.8 1051.95 221.613 1067.2 229.24C1082.8 236.867 1095.45 246.573 1105.16 258.36C1115.21 270.147 1122.49 282.8 1127 296.32C1131.85 309.493 1134.28 321.8 1134.28 333.24V366.52H926.278C927.318 391.827 935.292 412.453 950.198 428.4C965.452 444 986.252 451.8 1012.6 451.8C1037.21 451.8 1055.59 446.6 1067.72 436.2C1079.85 425.8 1088.17 413.32 1092.68 398.76L1131.16 409.16C1123.88 433.08 1110.36 452.667 1090.6 467.92C1071.19 482.827 1044.84 490.28 1011.56 490.28ZM927.318 329.08H1093.72C1093.03 314.173 1088.69 301.347 1080.72 290.6C1073.09 279.507 1063.21 271.013 1051.08 265.12C1038.95 259.227 1026.12 256.28 1012.6 256.28C989.718 256.28 970.478 263.213 954.878 277.08C939.278 290.947 930.092 308.28 927.318 329.08ZM1215.04 483V225.08H1255.6V268.76H1261.84C1277.78 234.787 1305.52 217.8 1345.04 217.8C1374.85 217.8 1398.6 227.16 1416.28 245.88C1433.96 264.253 1442.8 291.987 1442.8 329.08V483H1402.24V337.4C1402.24 310.36 1396.17 290.08 1384.04 276.56C1371.9 263.04 1355.44 256.28 1334.64 256.28C1310.37 256.28 1291.13 264.773 1276.92 281.76C1262.7 298.4 1255.6 320.76 1255.6 348.84V483H1215.04ZM1649.92 184.52C1640.21 184.52 1631.72 180.88 1624.44 173.6C1617.16 166.32 1613.52 157.827 1613.52 148.12C1613.52 138.067 1617.16 129.573 1624.44 122.64C1631.72 115.36 1640.21 111.72 1649.92 111.72C1659.97 111.72 1668.46 115.36 1675.4 122.64C1682.68 129.573 1686.32 138.067 1686.32 148.12C1686.32 157.827 1682.68 166.32 1675.4 173.6C1668.46 180.88 1659.97 184.52 1649.92 184.52ZM1539.68 483V445.56H1630.16V262.52H1549.04V225.08H1670.72V445.56H1754.96V483H1539.68ZM1945.43 490.28C1917.01 490.28 1893.78 480.92 1875.75 462.2C1857.73 443.48 1848.71 415.747 1848.71 379V225.08H1889.27V373.8C1889.27 400.84 1894.82 420.6 1905.91 433.08C1917.01 445.56 1933.99 451.8 1956.87 451.8C1981.49 451.8 2000.73 443.48 2014.59 426.84C2028.81 409.853 2035.91 387.32 2035.91 359.24V225.08H2076.47V483H2035.91V436.2H2029.67C2021.35 452.84 2010.43 466.013 1996.91 475.72C1983.39 485.427 1966.23 490.28 1945.43 490.28ZM2288.27 490.28C2261.58 490.28 2239.74 485.773 2222.75 476.76C2205.77 467.4 2193.11 455.613 2184.79 441.4C2176.47 426.84 2171.79 411.933 2170.75 396.68L2209.23 387.32C2210.97 407.08 2218.59 423.027 2232.11 435.16C2245.98 446.947 2264.01 452.84 2286.19 452.84C2305.26 452.84 2320.51 449.2 2331.95 441.92C2343.74 434.293 2349.63 423.72 2349.63 410.2C2349.63 395.64 2343.91 385.24 2332.47 379C2321.03 372.76 2302.49 368.773 2276.83 367.04C2247.37 364.96 2224.49 358.027 2208.19 346.24C2192.25 334.107 2184.27 316.947 2184.27 294.76V291.64C2184.27 275.347 2188.78 261.827 2197.79 251.08C2206.81 239.987 2218.42 231.667 2232.63 226.12C2246.85 220.573 2261.93 217.8 2277.87 217.8C2300.75 217.8 2319.65 221.787 2334.55 229.76C2349.81 237.387 2361.42 247.44 2369.39 259.92C2377.37 272.053 2382.22 284.707 2383.95 297.88L2345.47 307.24C2344.09 290.6 2337.5 277.6 2325.71 268.24C2313.93 258.88 2298.67 254.2 2279.95 254.2C2265.39 254.2 2252.39 257.32 2240.95 263.56C2229.51 269.8 2223.79 279.16 2223.79 291.64C2223.79 304.12 2228.99 313.653 2239.39 320.24C2250.14 326.827 2269.55 331.16 2297.63 333.24C2327.45 335.667 2350.33 342.947 2366.27 355.08C2382.22 366.867 2390.19 384.2 2390.19 407.08V410.2C2390.19 435.16 2380.66 454.747 2361.59 468.96C2342.87 483.173 2318.43 490.28 2288.27 490.28ZM2602.51 490.28C2592.8 490.28 2584.31 486.64 2577.03 479.36C2569.75 472.08 2566.11 463.587 2566.11 453.88C2566.11 443.827 2569.75 435.333 2577.03 428.4C2584.31 421.12 2592.8 417.48 2602.51 417.48C2612.56 417.48 2621.06 421.12 2627.99 428.4C2635.27 435.333 2638.91 443.827 2638.91 453.88C2638.91 463.587 2635.27 472.08 2627.99 479.36C2621.06 486.64 2612.56 490.28 2602.51 490.28ZM2932.87 490.28C2916.23 490.28 2899.59 486.467 2882.95 478.84C2866.31 470.867 2853.48 459.08 2844.47 443.48H2838.23V483H2797.67V119H2838.23V265.64H2844.47C2853.48 250.04 2865.96 238.253 2881.91 230.28C2897.86 221.96 2915.19 217.8 2933.91 217.8C2955.06 217.8 2974.64 223 2992.67 233.4C3010.7 243.453 3025.08 258.36 3035.83 278.12C3046.92 297.533 3052.47 321.107 3052.47 348.84V359.24C3052.47 387.32 3047.1 411.067 3036.35 430.48C3025.6 449.893 3011.04 464.8 2992.67 475.2C2974.64 485.253 2954.71 490.28 2932.87 490.28ZM2924.55 451.8C2949.16 451.8 2969.62 443.48 2985.91 426.84C3002.55 410.2 3010.87 387.667 3010.87 359.24V348.84C3010.87 330.467 3007.06 314.347 2999.43 300.48C2991.8 286.613 2981.4 275.867 2968.23 268.24C2955.4 260.267 2940.84 256.28 2924.55 256.28C2908.6 256.28 2894.04 260.44 2880.87 268.76C2868.04 276.733 2857.64 287.827 2849.67 302.04C2842.04 316.253 2838.23 332.547 2838.23 350.92V357.16C2838.23 376.227 2842.04 392.867 2849.67 407.08C2857.3 421.293 2867.7 432.387 2880.87 440.36C2894.04 447.987 2908.6 451.8 2924.55 451.8ZM3240.35 490.28C3215.73 490.28 3193.89 484.733 3174.83 473.64C3156.11 462.2 3141.37 446.6 3130.63 426.84C3119.88 406.733 3114.51 383.507 3114.51 357.16V344.68C3114.51 320.413 3120.05 298.747 3131.15 279.68C3142.24 260.613 3157.32 245.533 3176.39 234.44C3195.8 223.347 3217.47 217.8 3241.39 217.8C3262.53 217.8 3280.73 221.613 3295.99 229.24C3311.59 236.867 3324.24 246.573 3333.95 258.36C3344 270.147 3351.28 282.8 3355.79 296.32C3360.64 309.493 3363.07 321.8 3363.07 333.24V366.52H3155.07C3156.11 391.827 3164.08 412.453 3178.99 428.4C3194.24 444 3215.04 451.8 3241.39 451.8C3266 451.8 3284.37 446.6 3296.51 436.2C3308.64 425.8 3316.96 413.32 3321.47 398.76L3359.95 409.16C3352.67 433.08 3339.15 452.667 3319.39 467.92C3299.97 482.827 3273.63 490.28 3240.35 490.28ZM3156.11 329.08H3322.51C3321.81 314.173 3317.48 301.347 3309.51 290.6C3301.88 279.507 3292 271.013 3279.87 265.12C3267.73 259.227 3254.91 256.28 3241.39 256.28C3218.51 256.28 3199.27 263.213 3183.67 277.08C3168.07 290.947 3158.88 308.28 3156.11 329.08ZM3443.83 483V225.08H3484.39V268.76H3490.63C3506.57 234.787 3534.31 217.8 3573.83 217.8C3603.64 217.8 3627.39 227.16 3645.07 245.88C3662.75 264.253 3671.59 291.987 3671.59 329.08V483H3631.03V337.4C3631.03 310.36 3624.96 290.08 3612.83 276.56C3600.69 263.04 3584.23 256.28 3563.43 256.28C3539.16 256.28 3519.92 264.773 3505.71 281.76C3491.49 298.4 3484.39 320.76 3484.39 348.84V483H3443.83ZM3798.1 366.52V329.08H3954.1V366.52H3798.1ZM4060.34 483V225.08H4100.9V253.16H4107.14C4111.65 241.027 4118.24 232.187 4126.9 226.64C4135.57 220.747 4145.8 217.8 4157.58 217.8C4170.06 217.8 4180.29 221.093 4188.26 227.68C4196.58 234.267 4202.3 242.76 4205.42 253.16H4211.66C4223.45 229.587 4242.17 217.8 4267.82 217.8C4287.24 217.8 4302.14 224.04 4312.54 236.52C4323.29 248.653 4328.66 264.6 4328.66 284.36V483H4288.1V297.88C4288.1 285.747 4285.33 275.867 4279.78 268.24C4274.24 260.267 4265.4 256.28 4253.26 256.28C4241.82 256.28 4232.46 260.613 4225.18 269.28C4218.25 277.947 4214.78 290.947 4214.78 308.28V483H4174.22V295.8C4174.22 284.36 4171.1 275 4164.86 267.72C4158.62 260.093 4150.3 256.28 4139.9 256.28C4127.42 256.28 4117.72 260.787 4110.78 269.8C4104.2 278.813 4100.9 290.6 4100.9 305.16V483H4060.34ZM4515.5 184.52C4505.79 184.52 4497.3 180.88 4490.02 173.6C4482.74 166.32 4479.1 157.827 4479.1 148.12C4479.1 138.067 4482.74 129.573 4490.02 122.64C4497.3 115.36 4505.79 111.72 4515.5 111.72C4525.55 111.72 4534.05 115.36 4540.98 122.64C4548.26 129.573 4551.9 138.067 4551.9 148.12C4551.9 157.827 4548.26 166.32 4540.98 173.6C4534.05 180.88 4525.55 184.52 4515.5 184.52ZM4405.26 483V445.56H4495.74V262.52H4414.62V225.08H4536.3V445.56H4620.54V483H4405.26ZM4717.42 483V225.08H4757.98V268.76H4764.22C4780.17 234.787 4807.9 217.8 4847.42 217.8C4877.23 217.8 4900.98 227.16 4918.66 245.88C4936.34 264.253 4945.18 291.987 4945.18 329.08V483H4904.62V337.4C4904.62 310.36 4898.55 290.08 4886.42 276.56C4874.29 263.04 4857.82 256.28 4837.02 256.28C4812.75 256.28 4793.51 264.773 4779.3 281.76C4765.09 298.4 4757.98 320.76 4757.98 348.84V483H4717.42ZM5152.3 184.52C5142.59 184.52 5134.1 180.88 5126.82 173.6C5119.54 166.32 5115.9 157.827 5115.9 148.12C5115.9 138.067 5119.54 129.573 5126.82 122.64C5134.1 115.36 5142.59 111.72 5152.3 111.72C5162.35 111.72 5170.84 115.36 5177.78 122.64C5185.06 129.573 5188.7 138.067 5188.7 148.12C5188.7 157.827 5185.06 166.32 5177.78 173.6C5170.84 180.88 5162.35 184.52 5152.3 184.52ZM5042.06 483V445.56H5132.54V262.52H5051.42V225.08H5173.1V445.56H5257.34V483H5042.06Z" fill="black"/>
<rect y="84" width="430" height="430" rx="78" fill="black"/>
<path d="M213.477 395.971L170.791 447.983C169.748 449.283 170.172 449.875 171.739 449.306L212.529 422.486C214.095 421.916 216.632 421.922 218.196 422.498L258.392 449.293C259.955 449.87 260.384 449.277 259.35 447.971L217.237 395.983C216.203 394.677 214.519 394.671 213.477 395.971Z" fill="white"/>
<path d="M213.257 445.495L170.571 497.507C169.529 498.806 169.953 499.398 171.519 498.829L212.31 472.01C213.875 471.44 216.413 471.445 217.976 472.022L258.172 498.817C259.736 499.394 260.165 498.801 259.13 497.495L217.017 445.507C215.983 444.201 214.299 444.195 213.257 445.495Z" fill="white"/>
<path d="M352.058 313.298C352.034 313.244 352.009 313.191 351.98 313.141L339.5 290.943V275.25C339.5 273.493 338.802 271.808 337.56 270.565C336.317 269.323 334.632 268.625 332.875 268.625H293.125C291.368 268.625 289.683 269.323 288.44 270.565C287.198 271.808 286.5 273.493 286.5 275.25V290.951L274.02 313.141C273.991 313.191 273.966 313.244 273.937 313.298C273.397 314.387 273.167 315.603 273.274 316.814C273.38 318.024 273.819 319.182 274.542 320.159L274.587 320.217L310.379 366.708C310.688 367.109 311.086 367.434 311.541 367.658C311.995 367.881 312.495 367.998 313.002 367.998C313.509 367.998 314.009 367.881 314.464 367.658C314.918 367.434 315.316 367.109 315.625 366.708L351.413 320.217L351.458 320.159C352.181 319.182 352.62 318.024 352.726 316.813C352.832 315.603 352.601 314.386 352.058 313.298ZM332.875 275.25V288.5H293.125V275.25H332.875ZM313 321.625C312.017 321.625 311.057 321.334 310.239 320.788C309.422 320.242 308.786 319.466 308.409 318.558C308.033 317.65 307.935 316.651 308.127 315.687C308.318 314.723 308.792 313.838 309.487 313.143C310.181 312.448 311.067 311.975 312.031 311.783C312.994 311.591 313.994 311.69 314.901 312.066C315.809 312.442 316.585 313.079 317.131 313.896C317.677 314.713 317.969 315.674 317.969 316.656C317.969 317.974 317.445 319.238 316.513 320.17C315.582 321.102 314.318 321.625 313 321.625ZM316.312 354.957V327.766C318.981 326.97 321.274 325.24 322.773 322.893C324.271 320.545 324.874 317.737 324.472 314.981C324.07 312.226 322.69 309.707 320.583 307.885C318.477 306.064 315.785 305.061 313 305.061C310.215 305.061 307.523 306.064 305.417 307.885C303.31 309.707 301.93 312.226 301.528 314.981C301.126 317.737 301.729 320.545 303.227 322.893C304.726 325.24 307.019 326.97 309.687 327.766V354.953L279.875 316.242L291.754 295.125H334.25L346.125 316.242L316.312 354.957Z" fill="#FF1000"/>
<path d="M157.242 277.943C157.219 277.893 157.197 277.844 157.17 277.799L145.75 257.486V243.125C145.75 241.517 145.111 239.975 143.974 238.838C142.837 237.701 141.295 237.062 139.687 237.062H103.312C101.705 237.062 100.163 237.701 99.0257 238.838C97.8887 239.975 97.25 241.517 97.25 243.125V257.493L85.8298 277.799C85.8032 277.844 85.7805 277.893 85.754 277.943C85.2592 278.939 85.0491 280.052 85.1467 281.16C85.2443 282.268 85.6459 283.327 86.3072 284.221L86.3489 284.274L119.102 326.818C119.385 327.185 119.748 327.482 120.164 327.687C120.581 327.892 121.038 327.998 121.502 327.998C121.966 327.998 122.423 327.892 122.839 327.687C123.255 327.482 123.619 327.185 123.902 326.818L156.651 284.274L156.693 284.221C157.354 283.327 157.756 282.267 157.853 281.159C157.95 280.051 157.738 278.938 157.242 277.943ZM139.687 243.125V255.25H103.312V243.125H139.687ZM121.5 285.562C120.601 285.562 119.722 285.296 118.974 284.796C118.226 284.297 117.643 283.586 117.299 282.756C116.955 281.925 116.865 281.011 117.04 280.129C117.216 279.247 117.649 278.436 118.285 277.8C118.921 277.165 119.731 276.732 120.613 276.556C121.495 276.381 122.409 276.471 123.24 276.815C124.071 277.159 124.781 277.742 125.281 278.49C125.78 279.237 126.047 280.116 126.047 281.016C126.047 282.222 125.568 283.378 124.715 284.231C123.862 285.083 122.706 285.562 121.5 285.562ZM124.531 316.064V291.182C126.973 290.454 129.072 288.871 130.443 286.723C131.814 284.574 132.366 282.005 131.998 279.483C131.63 276.961 130.367 274.656 128.439 272.989C126.512 271.322 124.048 270.405 121.5 270.405C118.952 270.405 116.488 271.322 114.561 272.989C112.633 274.656 111.37 276.961 111.002 279.483C110.634 282.005 111.186 284.574 112.557 286.723C113.928 288.871 116.027 290.454 118.469 291.182V316.061L91.1875 280.637L102.058 261.312H140.945L151.812 280.637L124.531 316.064Z" fill="#FFB800"/>
<path d="M282.557 177.103C282.537 177.059 282.517 177.015 282.493 176.974L272.25 158.755V145.875C272.25 144.433 271.677 143.05 270.657 142.03C269.638 141.01 268.255 140.438 266.812 140.438H234.187C232.745 140.438 231.362 141.01 230.343 142.03C229.323 143.05 228.75 144.433 228.75 145.875V158.762L218.507 176.974C218.483 177.015 218.463 177.059 218.439 177.103C217.995 177.997 217.807 178.995 217.894 179.989C217.982 180.982 218.342 181.932 218.935 182.734L218.973 182.782L248.349 220.94C248.603 221.269 248.929 221.536 249.302 221.719C249.675 221.903 250.086 221.998 250.502 221.998C250.918 221.998 251.328 221.903 251.701 221.719C252.074 221.536 252.401 221.269 252.655 220.94L282.027 182.782L282.065 182.734C282.658 181.932 283.018 180.982 283.105 179.988C283.192 178.995 283.002 177.996 282.557 177.103ZM266.812 145.875V156.75H234.187V145.875H266.812ZM250.5 183.938C249.693 183.938 248.905 183.698 248.234 183.25C247.564 182.802 247.041 182.165 246.732 181.42C246.424 180.675 246.343 179.855 246.5 179.064C246.658 178.273 247.046 177.546 247.616 176.976C248.187 176.405 248.913 176.017 249.704 175.86C250.495 175.702 251.315 175.783 252.061 176.092C252.806 176.4 253.443 176.923 253.891 177.594C254.339 178.264 254.578 179.053 254.578 179.859C254.578 180.941 254.148 181.978 253.384 182.743C252.619 183.508 251.582 183.938 250.5 183.938ZM253.219 211.295V188.977C255.409 188.324 257.291 186.905 258.521 184.978C259.751 183.051 260.246 180.746 259.916 178.485C259.586 176.223 258.453 174.156 256.724 172.661C254.995 171.166 252.786 170.343 250.5 170.343C248.214 170.343 246.005 171.166 244.276 172.661C242.547 174.156 241.414 176.223 241.084 178.485C240.754 180.746 241.249 183.051 242.479 184.978C243.709 186.905 245.591 188.324 247.781 188.977V211.292L223.312 179.52L233.063 162.188H267.941L277.687 179.52L253.219 211.295Z" fill="#FFF500"/>
</svg>
